



<svg xmlns="http://www.w3.org/2000/svg" xmlns:xlink="http://www.w3.org/1999/xlink"
     width="90mm" height="100mm" viewBox="90 10 90 100">




    <path  id="pancreas" d="M136.21 72.625l3.007-1.503 1.052.301 1.202-.751 1.203.45 1.653-.6 1.052.3h1.353l.204 1.068-1.088.694-3.174.793-2.706 1.353-.977.135-.488.652-.38.38 1.357 1.14-.163 1.032-.434.978-1.14.217h-.87l-2.444-1.032-.978-2.39v-1.846l1.032-1.412 1.032-.326.87.271z" fill="#ffdf40" fill-opacity=".529" stroke="#0c2c8e" stroke-width=".3" stroke-miterlimit="3.9" stroke-dasharray=".90000665,.30000222"/>


    <path  id="spleen" d="M146.895 69.305l.38-.519.519-.346.553-.069.796.242 1.002.934.485 1.245-.104 1.002-.346.969-.553.691-.83.311-.692-.138-.657-.588-.138-.467.277-.674-.139-.899-.45-.553-.103-.484z" fill="#942914" fill-opacity=".743" stroke="#fc5000" stroke-width=".24" stroke-miterlimit="3.9" stroke-dasharray=".47922533,.23961266"/>

    <path  id="stomach" d="M137.818 39.494l.125 7.988.77 14.814.172 5.565 1.027 1.028.814.77.47-1.027 2.013-.171 1.498 1.027.6 1.884-.857 2.826-2.483 2.74-4.452 1.883-1.627-.599-1.199-2.055-.942-.171-1.027 1.027.085 1.2-1.37.17.343-2.483 1.97-1.541 1.797-.6 1.2.686.855-.172 1.2-1.113.256-2.397-1.712-1.542-.685-1.798.17-2.997.086-9.675-.685-12.16.132-3.014z" fill="#ff8716" fill-opacity=".798" stroke="#ff1f64" stroke-width=".3" stroke-miterlimit="3.9"/>

    <path  id="liver" d="M143.08 67.262l.857.514v1.199l-.514.599-2.398 1.627-2.996.942-2.655.257-1.798 3.253-2.312 1.884-4.281 1.541-.6-.942.429-1.37-1.2-2.91.086-4.625 1.542-2.311 3.596-.857 3.51.257 2.655.942 3.51.086 1.799-.514z" fill="#dc6d2a" fill-opacity=".774" stroke="#df0b1b" stroke-width=".3" stroke-miterlimit="3.9"/>

    <path  id="lung" d="M137.385 39.505l.13 13.372.856.514.343-4.11 1.883-2.655 2.227.257 3.168 2.226 3.682 6.936 1.027 6.508-.856 4.11-1.627.856-3.939-.942-4.11.514 1.199-3.34.342-3.253-2.568-4.367-2.997-.942-1.199.942-1.199 1.455.172 7.45-1.285 2.14-4.024 1.456-3.083 2.911-1.541.086-.6-.942-.256-4.966 1.455-8.905 2.912-6.165 3.853-2.912 1.455.257 1.028 2.912.342 2.226.857-.6.085-4.024.389-8.959z" fill="#aedd84" fill-opacity=".739" stroke="#00fa00" stroke-width=".282" stroke-miterlimit="3.9"/>

    <path id="s-intestine"  d="M139.399 78.89l2.055.514.256 1.028v1.027l1.285-.513 1.113-.086.77.77.258.857-.514.856-1.456.6 1.97.856-.343 1.883-1.37 1.2-.942.513.086.942-.857.77-2.055.514.172.856v1.456l-1.028 1.113-1.627.086-.685-1.541.086 1.198-1.285.685-1.798-.085-1.284-2.227-1.713-.085-.941-1.199.085-.77 1.285-1.285-1.028-1.712-1.027-1.97.513-1.627-.342-1.455.085-1.37.771-.857 1.627-.428.856-.77 1.541-.172 1.542.6 1.113 1.027h1.199l.342-.77z" fill="#ecdd44" stroke="#b69e00" stroke-width=".3" stroke-miterlimit="3.9"/>

    <path  id="heart" d="M134.775 59.771l-.378 1.037-.46.939-.008.97-.007.97.992 1.86 2.002 1.116 2.483.257.942-1.2.6-2.654-.72-2.12-.6-.658 1.148-.475-.342-.857-.942.514-.343-.428.942-.77-.292-.618-1.506.874-.115-1.036-.532-.402.302-.9-.67-.245-.337.936-.175-1.308-.487.044.042 1.586-.41-1.347-.587.453.131-.13.454 1.435-.185.4-.926-.754-.618-1.599.103-.843-.667.22.096 2.035.442 1.05.513.705z" fill="#f15c50" fill-opacity=".732" stroke="#782a30" stroke-width=".3" stroke-miterlimit="3.9"/>


    <path id="bladder"  d="M137.045 98.64l-1.78-.19-2.064.095-.999.538-.998.537-1.463 1.9.328 1.982 1.596 1.649 2.458.922.307 3.84.46-.307.227-2.443.807-1.551 2.263-.287 1.692-1.306.633-2.202-.217-1.542-.95-.808-.885-.557z" fill="#dd81c9" fill-opacity=".697" stroke="#ba155b" stroke-width=".3" stroke-miterlimit="3.9"/>

    <path id="l-intestine"  d="M135.888 102.797l.086 1.37-.771 2.91-.685-.256-.685-2.226.428-1.627-.685-1.713-.942-2.825-.085-1.97 1.37-1.455 1.798-.514 2.226.6 1.113-1.628 1.199-.513-.086-1.884.6-.942.941-.086-.428-1.455.6-.343.085-1.37.942-.77-.342-1.028.77-.514.257-.685.685-.77-.428-2.055.257-.857-.428-.77-.856-.343-1.713.428h-1.113l-.77.257-.6-.599-.77.257-3.511.257v-.6l-1.627.257-1.028-.6-.77.686-.942-.343-1.199 1.37.342 2.997V86.613l.6.172.085 1.284 1.37.685-.513 1.627.685 1.884-.086 1.37.514 1.198-1.028.6-.257 1.113.086 1.028-.342.513-.343-1.541.428-1.199-1.541-.171-.942-1.37-.6-2.312.429-.685-.77-1.627.342-1.199-.257-1.027.514-.856-.685-1.456.085-1.027-.77-.685.513-1.2-.257-.941.685-.856-.085-1.028 1.113-1.027v-1.285l1.113-.171 1.456-.77 1.198.684 1.799-.856 1.284.6h2.74l.514.342 2.226.086.685.085 1.028-.257 1.198.172 1.456-.685.856.256.685-.17 1.028 1.198.514 1.541-.429.514.857.514-1.028 1.97.257.513-.856 1.199.428.685-1.113 1.113.171 1.712-.514 1.113.172.771-.6.514-.257 1.027-.942.6-.428 2.14-1.199.942.257.77-1.027.771-.856 1.37-.857-.428-.942.514-1.027.428-2.398-.171.942 1.713-.428 1.798-.685.342z" fill="#52c65e" fill-opacity=".697" stroke="#556c37" stroke-width=".3" stroke-miterlimit="3.9"/>



    <path id="brain"  d="M138.251 15.908l-.772-.232-1.159-.077-2.857.695-2.24 1.854-.85 2.085.31 1.854.54 1.042 1.544 1.352.348.965 1.352.58 2.24.612.54 1.004.618-.077.54-.85 2.086-.69 1.39-.386 1.159-.463.463-1.815 1.313-.888.85-2.086-.54-2.394-2.164-2.008-2.24-.232-1.853.387z" fill="#927aff" fill-opacity=".763" stroke="#32007b" stroke-width=".282" stroke-miterlimit="3.9"/>


    <path id="head"  d="M137.512 14.14l7.67.627 1.879 3.13-.705 6.223.861.821-.782 5.166-1.41.86-1.33 5.205-2.191 2.231-3.522 1.096-2.661.039-4.109-1.213-1.252-1.996-1.018-3.835-.47-1.8-.938-.626.078-3.914 1.017.04-.587-5.988.94-2.582 3.208-2.661z" fill="#fad9c9" fill-opacity=".373" stroke="#fca1c8" stroke-width=".285" stroke-miterlimit="3.9"/>


    <path id="pancreas"  d="M130.355 71.95l1.358-.108.924.706.271 1.466-.652 1.032-.651.543-.109 1.032-.76.815 1.195 1.575.434.87-.434.76-1.087.76-2.607-1.14-.706-1.902v-2.715l.598-1.467 1.086-1.52zM142.662 72.485l-1.358-.109-.923.706-.272 1.467.652 1.032.652.543.108 1.032.76.815-1.194 1.575-.435.869.435.76 1.086.76 2.607-1.14.706-1.901v-2.716l-.597-1.466-1.087-1.521z" fill="#5b3f3f" fill-opacity=".856" stroke="#bd8edb" stroke-width=".3" stroke-miterlimit="3.9" stroke-dasharray="1.20000887,.30000222"/>



</svg>